<mxfile host="Electron" modified="2023-05-18T18:09:24.917Z" agent="Mozilla/5.0 (Windows NT 10.0; Win64; x64) AppleWebKit/537.36 (KHTML, like Gecko) draw.io/21.2.8 Chrome/112.0.5615.165 Electron/24.2.0 Safari/537.36" etag="-trp7Wm8KnI-9JrdjYSz" version="21.2.8" type="device">
  <diagram name="Página-1" id="-IcfXLbe-2yk91k9prqT">
    <mxGraphModel dx="1690" dy="516" grid="1" gridSize="10" guides="1" tooltips="1" connect="1" arrows="1" fold="1" page="1" pageScale="1" pageWidth="827" pageHeight="1169" math="0" shadow="0">
      <root>
        <mxCell id="0" />
        <mxCell id="1" parent="0" />
        <mxCell id="2_XzBhvZmz4nc-dEymo_-1" value="Tela de Login - Autenticação" style="rounded=0;whiteSpace=wrap;html=1;" vertex="1" parent="1">
          <mxGeometry x="270" y="30" width="170" height="60" as="geometry" />
        </mxCell>
        <mxCell id="2_XzBhvZmz4nc-dEymo_-3" value="" style="endArrow=none;html=1;rounded=0;exitX=0.541;exitY=0.983;exitDx=0;exitDy=0;exitPerimeter=0;" edge="1" parent="1" source="2_XzBhvZmz4nc-dEymo_-1">
          <mxGeometry width="50" height="50" relative="1" as="geometry">
            <mxPoint x="362" y="100" as="sourcePoint" />
            <mxPoint x="362" y="160" as="targetPoint" />
          </mxGeometry>
        </mxCell>
        <mxCell id="2_XzBhvZmz4nc-dEymo_-4" value="" style="endArrow=none;html=1;rounded=0;" edge="1" parent="1">
          <mxGeometry width="50" height="50" relative="1" as="geometry">
            <mxPoint x="280" y="160" as="sourcePoint" />
            <mxPoint x="440" y="160" as="targetPoint" />
          </mxGeometry>
        </mxCell>
        <mxCell id="2_XzBhvZmz4nc-dEymo_-5" value="Acesso com usuario e senha" style="rounded=0;whiteSpace=wrap;html=1;" vertex="1" parent="1">
          <mxGeometry x="440" y="140" width="120" height="60" as="geometry" />
        </mxCell>
        <mxCell id="2_XzBhvZmz4nc-dEymo_-6" value="Criar Usuario" style="rounded=0;whiteSpace=wrap;html=1;" vertex="1" parent="1">
          <mxGeometry x="160" y="140" width="120" height="60" as="geometry" />
        </mxCell>
        <mxCell id="2_XzBhvZmz4nc-dEymo_-8" value="Banco de dados de Autenticação" style="rounded=0;whiteSpace=wrap;html=1;" vertex="1" parent="1">
          <mxGeometry x="300" y="240" width="120" height="60" as="geometry" />
        </mxCell>
        <mxCell id="2_XzBhvZmz4nc-dEymo_-9" value="" style="endArrow=classic;html=1;rounded=0;exitX=0.5;exitY=1;exitDx=0;exitDy=0;" edge="1" parent="1" source="2_XzBhvZmz4nc-dEymo_-6">
          <mxGeometry width="50" height="50" relative="1" as="geometry">
            <mxPoint x="390" y="180" as="sourcePoint" />
            <mxPoint x="290" y="270" as="targetPoint" />
          </mxGeometry>
        </mxCell>
        <mxCell id="2_XzBhvZmz4nc-dEymo_-10" value="" style="endArrow=classic;html=1;rounded=0;exitX=1;exitY=0.5;exitDx=0;exitDy=0;" edge="1" parent="1" source="2_XzBhvZmz4nc-dEymo_-8">
          <mxGeometry width="50" height="50" relative="1" as="geometry">
            <mxPoint x="390" y="180" as="sourcePoint" />
            <mxPoint x="490" y="210" as="targetPoint" />
          </mxGeometry>
        </mxCell>
        <mxCell id="2_XzBhvZmz4nc-dEymo_-11" value="" style="endArrow=classic;html=1;rounded=0;exitX=0.633;exitY=1.017;exitDx=0;exitDy=0;exitPerimeter=0;entryX=1.025;entryY=0.65;entryDx=0;entryDy=0;entryPerimeter=0;" edge="1" parent="1" source="2_XzBhvZmz4nc-dEymo_-5" target="2_XzBhvZmz4nc-dEymo_-8">
          <mxGeometry width="50" height="50" relative="1" as="geometry">
            <mxPoint x="390" y="180" as="sourcePoint" />
            <mxPoint x="430" y="280" as="targetPoint" />
          </mxGeometry>
        </mxCell>
        <mxCell id="2_XzBhvZmz4nc-dEymo_-12" value="" style="endArrow=classic;html=1;rounded=0;exitX=0.5;exitY=1;exitDx=0;exitDy=0;" edge="1" parent="1" source="2_XzBhvZmz4nc-dEymo_-8">
          <mxGeometry width="50" height="50" relative="1" as="geometry">
            <mxPoint x="240" y="410" as="sourcePoint" />
            <mxPoint x="360" y="370" as="targetPoint" />
          </mxGeometry>
        </mxCell>
        <mxCell id="2_XzBhvZmz4nc-dEymo_-13" value="Tela de inico" style="rounded=0;whiteSpace=wrap;html=1;" vertex="1" parent="1">
          <mxGeometry x="300" y="380" width="120" height="60" as="geometry" />
        </mxCell>
        <mxCell id="2_XzBhvZmz4nc-dEymo_-14" value="" style="endArrow=classic;html=1;rounded=0;entryX=0.5;entryY=0;entryDx=0;entryDy=0;exitX=0.5;exitY=1;exitDx=0;exitDy=0;" edge="1" parent="1" source="2_XzBhvZmz4nc-dEymo_-13" target="2_XzBhvZmz4nc-dEymo_-15">
          <mxGeometry width="50" height="50" relative="1" as="geometry">
            <mxPoint x="350" y="460" as="sourcePoint" />
            <mxPoint x="230" y="410" as="targetPoint" />
          </mxGeometry>
        </mxCell>
        <mxCell id="2_XzBhvZmz4nc-dEymo_-15" value="Menus Lateriais e menus inferiores" style="rounded=0;whiteSpace=wrap;html=1;" vertex="1" parent="1">
          <mxGeometry x="300" y="500" width="120" height="60" as="geometry" />
        </mxCell>
        <mxCell id="2_XzBhvZmz4nc-dEymo_-16" value="" style="endArrow=classic;html=1;rounded=0;exitX=1;exitY=0.5;exitDx=0;exitDy=0;" edge="1" parent="1" source="2_XzBhvZmz4nc-dEymo_-13">
          <mxGeometry width="50" height="50" relative="1" as="geometry">
            <mxPoint x="390" y="480" as="sourcePoint" />
            <mxPoint x="510" y="410" as="targetPoint" />
          </mxGeometry>
        </mxCell>
        <mxCell id="2_XzBhvZmz4nc-dEymo_-17" value="Acesso aos telefone uteis e de urgencia&amp;nbsp;" style="rounded=0;whiteSpace=wrap;html=1;" vertex="1" parent="1">
          <mxGeometry x="520" y="380" width="120" height="60" as="geometry" />
        </mxCell>
        <mxCell id="2_XzBhvZmz4nc-dEymo_-18" value="" style="endArrow=none;html=1;rounded=0;exitX=0.5;exitY=1;exitDx=0;exitDy=0;" edge="1" parent="1" source="2_XzBhvZmz4nc-dEymo_-15">
          <mxGeometry width="50" height="50" relative="1" as="geometry">
            <mxPoint x="390" y="470" as="sourcePoint" />
            <mxPoint x="360" y="620" as="targetPoint" />
          </mxGeometry>
        </mxCell>
        <mxCell id="2_XzBhvZmz4nc-dEymo_-19" value="" style="endArrow=none;html=1;rounded=0;" edge="1" parent="1">
          <mxGeometry width="50" height="50" relative="1" as="geometry">
            <mxPoint x="-20" y="620" as="sourcePoint" />
            <mxPoint x="710" y="620" as="targetPoint" />
            <Array as="points">
              <mxPoint x="370" y="620" />
            </Array>
          </mxGeometry>
        </mxCell>
        <mxCell id="2_XzBhvZmz4nc-dEymo_-20" value="" style="endArrow=none;html=1;rounded=0;" edge="1" parent="1">
          <mxGeometry width="50" height="50" relative="1" as="geometry">
            <mxPoint x="120" y="680" as="sourcePoint" />
            <mxPoint x="120" y="620" as="targetPoint" />
          </mxGeometry>
        </mxCell>
        <mxCell id="2_XzBhvZmz4nc-dEymo_-21" value="Voltar a tela de inicio" style="rounded=0;whiteSpace=wrap;html=1;" vertex="1" parent="1">
          <mxGeometry x="60" y="680" width="120" height="60" as="geometry" />
        </mxCell>
        <mxCell id="2_XzBhvZmz4nc-dEymo_-22" value="" style="endArrow=none;html=1;rounded=0;exitX=0.5;exitY=0;exitDx=0;exitDy=0;" edge="1" parent="1" source="2_XzBhvZmz4nc-dEymo_-23">
          <mxGeometry width="50" height="50" relative="1" as="geometry">
            <mxPoint x="260" y="680" as="sourcePoint" />
            <mxPoint x="270" y="620" as="targetPoint" />
          </mxGeometry>
        </mxCell>
        <mxCell id="2_XzBhvZmz4nc-dEymo_-23" value="Tela de documentações" style="rounded=0;whiteSpace=wrap;html=1;" vertex="1" parent="1">
          <mxGeometry x="210" y="680" width="120" height="60" as="geometry" />
        </mxCell>
        <mxCell id="2_XzBhvZmz4nc-dEymo_-24" value="" style="endArrow=none;html=1;rounded=0;" edge="1" parent="1">
          <mxGeometry width="50" height="50" relative="1" as="geometry">
            <mxPoint x="410" y="680" as="sourcePoint" />
            <mxPoint x="410" y="620" as="targetPoint" />
          </mxGeometry>
        </mxCell>
        <mxCell id="2_XzBhvZmz4nc-dEymo_-25" value="Hospedagens" style="rounded=0;whiteSpace=wrap;html=1;" vertex="1" parent="1">
          <mxGeometry x="350" y="680" width="120" height="60" as="geometry" />
        </mxCell>
        <mxCell id="2_XzBhvZmz4nc-dEymo_-26" value="" style="endArrow=none;html=1;rounded=0;" edge="1" parent="1">
          <mxGeometry width="50" height="50" relative="1" as="geometry">
            <mxPoint x="560" y="680" as="sourcePoint" />
            <mxPoint x="560" y="620" as="targetPoint" />
          </mxGeometry>
        </mxCell>
        <mxCell id="2_XzBhvZmz4nc-dEymo_-27" value="Saúde - pronto atendimentos e ugencias" style="rounded=0;whiteSpace=wrap;html=1;" vertex="1" parent="1">
          <mxGeometry x="500" y="680" width="120" height="60" as="geometry" />
        </mxCell>
        <mxCell id="2_XzBhvZmz4nc-dEymo_-28" value="" style="endArrow=none;html=1;rounded=0;exitX=0.333;exitY=0;exitDx=0;exitDy=0;exitPerimeter=0;" edge="1" parent="1" source="2_XzBhvZmz4nc-dEymo_-21">
          <mxGeometry width="50" height="50" relative="1" as="geometry">
            <mxPoint x="390" y="570" as="sourcePoint" />
            <mxPoint x="100" y="410" as="targetPoint" />
          </mxGeometry>
        </mxCell>
        <mxCell id="2_XzBhvZmz4nc-dEymo_-31" value="" style="endArrow=classic;html=1;rounded=0;" edge="1" parent="1">
          <mxGeometry width="50" height="50" relative="1" as="geometry">
            <mxPoint x="100" y="410" as="sourcePoint" />
            <mxPoint x="290" y="410" as="targetPoint" />
          </mxGeometry>
        </mxCell>
        <mxCell id="2_XzBhvZmz4nc-dEymo_-32" value="Logout - Sair" style="rounded=0;whiteSpace=wrap;html=1;" vertex="1" parent="1">
          <mxGeometry x="-80" y="680" width="120" height="60" as="geometry" />
        </mxCell>
        <mxCell id="2_XzBhvZmz4nc-dEymo_-33" value="" style="endArrow=none;html=1;rounded=0;exitX=0.5;exitY=0;exitDx=0;exitDy=0;" edge="1" parent="1" source="2_XzBhvZmz4nc-dEymo_-32">
          <mxGeometry width="50" height="50" relative="1" as="geometry">
            <mxPoint x="310" y="670" as="sourcePoint" />
            <mxPoint x="-20" y="620" as="targetPoint" />
          </mxGeometry>
        </mxCell>
        <mxCell id="2_XzBhvZmz4nc-dEymo_-35" value="" style="endArrow=none;html=1;rounded=0;exitX=0.333;exitY=0;exitDx=0;exitDy=0;exitPerimeter=0;" edge="1" parent="1" source="2_XzBhvZmz4nc-dEymo_-32">
          <mxGeometry width="50" height="50" relative="1" as="geometry">
            <mxPoint x="310" y="670" as="sourcePoint" />
            <mxPoint x="-40" y="60" as="targetPoint" />
          </mxGeometry>
        </mxCell>
        <mxCell id="2_XzBhvZmz4nc-dEymo_-36" value="" style="endArrow=classic;html=1;rounded=0;" edge="1" parent="1">
          <mxGeometry width="50" height="50" relative="1" as="geometry">
            <mxPoint x="-40" y="60" as="sourcePoint" />
            <mxPoint x="260" y="60" as="targetPoint" />
          </mxGeometry>
        </mxCell>
        <mxCell id="2_XzBhvZmz4nc-dEymo_-37" value="" style="endArrow=none;html=1;rounded=0;exitX=0.5;exitY=0;exitDx=0;exitDy=0;" edge="1" parent="1" source="2_XzBhvZmz4nc-dEymo_-38">
          <mxGeometry width="50" height="50" relative="1" as="geometry">
            <mxPoint x="680" y="680" as="sourcePoint" />
            <mxPoint x="710" y="620" as="targetPoint" />
          </mxGeometry>
        </mxCell>
        <mxCell id="2_XzBhvZmz4nc-dEymo_-38" value="Busca no Maps - Localizador" style="rounded=0;whiteSpace=wrap;html=1;" vertex="1" parent="1">
          <mxGeometry x="650" y="680" width="120" height="60" as="geometry" />
        </mxCell>
        <mxCell id="2_XzBhvZmz4nc-dEymo_-39" value="" style="endArrow=classic;html=1;rounded=0;exitX=0.5;exitY=1;exitDx=0;exitDy=0;" edge="1" parent="1" source="2_XzBhvZmz4nc-dEymo_-23">
          <mxGeometry width="50" height="50" relative="1" as="geometry">
            <mxPoint x="300" y="830" as="sourcePoint" />
            <mxPoint x="270" y="800" as="targetPoint" />
          </mxGeometry>
        </mxCell>
        <mxCell id="2_XzBhvZmz4nc-dEymo_-40" value="Principais documentos para legalização no Brazil para Imigrantes" style="rounded=0;whiteSpace=wrap;html=1;" vertex="1" parent="1">
          <mxGeometry x="205" y="810" width="130" height="110" as="geometry" />
        </mxCell>
        <mxCell id="2_XzBhvZmz4nc-dEymo_-41" value="" style="endArrow=classic;html=1;rounded=0;exitX=0.5;exitY=1;exitDx=0;exitDy=0;" edge="1" parent="1" source="2_XzBhvZmz4nc-dEymo_-25">
          <mxGeometry width="50" height="50" relative="1" as="geometry">
            <mxPoint x="420" y="850" as="sourcePoint" />
            <mxPoint x="410" y="800" as="targetPoint" />
          </mxGeometry>
        </mxCell>
        <mxCell id="2_XzBhvZmz4nc-dEymo_-42" value="Pontos de Hospedagem publicas para Imigrantes" style="rounded=0;whiteSpace=wrap;html=1;" vertex="1" parent="1">
          <mxGeometry x="350" y="810" width="130" height="110" as="geometry" />
        </mxCell>
        <mxCell id="2_XzBhvZmz4nc-dEymo_-45" value="" style="endArrow=classic;html=1;rounded=0;exitX=0.5;exitY=1;exitDx=0;exitDy=0;" edge="1" parent="1" source="2_XzBhvZmz4nc-dEymo_-27">
          <mxGeometry width="50" height="50" relative="1" as="geometry">
            <mxPoint x="300" y="890" as="sourcePoint" />
            <mxPoint x="560" y="800" as="targetPoint" />
          </mxGeometry>
        </mxCell>
        <mxCell id="2_XzBhvZmz4nc-dEymo_-46" value="Ponto de atendimento a Saúde e ugencia (SAMU, UPA&#39;s e UBS)" style="rounded=0;whiteSpace=wrap;html=1;" vertex="1" parent="1">
          <mxGeometry x="510" y="810" width="120" height="110" as="geometry" />
        </mxCell>
        <mxCell id="2_XzBhvZmz4nc-dEymo_-47" value="Sua localização e a distancia para onde pretende ir" style="rounded=0;whiteSpace=wrap;html=1;" vertex="1" parent="1">
          <mxGeometry x="650" y="810" width="120" height="110" as="geometry" />
        </mxCell>
        <mxCell id="2_XzBhvZmz4nc-dEymo_-48" value="" style="endArrow=classic;html=1;rounded=0;exitX=0.5;exitY=1;exitDx=0;exitDy=0;" edge="1" parent="1" source="2_XzBhvZmz4nc-dEymo_-38">
          <mxGeometry width="50" height="50" relative="1" as="geometry">
            <mxPoint x="790" y="780" as="sourcePoint" />
            <mxPoint x="710" y="800" as="targetPoint" />
          </mxGeometry>
        </mxCell>
        <mxCell id="2_XzBhvZmz4nc-dEymo_-49" value="" style="endArrow=none;html=1;rounded=0;" edge="1" parent="1">
          <mxGeometry width="50" height="50" relative="1" as="geometry">
            <mxPoint x="720" y="1010" as="sourcePoint" />
            <mxPoint x="720" y="920" as="targetPoint" />
          </mxGeometry>
        </mxCell>
        <mxCell id="2_XzBhvZmz4nc-dEymo_-50" value="caminho percorrido por transporte publico e veiculos diveros para :" style="rounded=0;whiteSpace=wrap;html=1;" vertex="1" parent="1">
          <mxGeometry x="360" y="980" width="150" height="70" as="geometry" />
        </mxCell>
        <mxCell id="2_XzBhvZmz4nc-dEymo_-52" value="" style="endArrow=classic;html=1;rounded=0;" edge="1" parent="1">
          <mxGeometry width="50" height="50" relative="1" as="geometry">
            <mxPoint x="720" y="1010" as="sourcePoint" />
            <mxPoint x="520" y="1010" as="targetPoint" />
          </mxGeometry>
        </mxCell>
        <mxCell id="2_XzBhvZmz4nc-dEymo_-53" value="" style="endArrow=classic;html=1;rounded=0;exitX=1;exitY=0.371;exitDx=0;exitDy=0;exitPerimeter=0;" edge="1" parent="1" source="2_XzBhvZmz4nc-dEymo_-50">
          <mxGeometry width="50" height="50" relative="1" as="geometry">
            <mxPoint x="530" y="1030" as="sourcePoint" />
            <mxPoint x="570" y="930" as="targetPoint" />
            <Array as="points">
              <mxPoint x="530" y="980" />
            </Array>
          </mxGeometry>
        </mxCell>
        <mxCell id="2_XzBhvZmz4nc-dEymo_-54" value="" style="endArrow=classic;html=1;rounded=0;exitX=0.46;exitY=-0.029;exitDx=0;exitDy=0;exitPerimeter=0;" edge="1" parent="1" source="2_XzBhvZmz4nc-dEymo_-50">
          <mxGeometry width="50" height="50" relative="1" as="geometry">
            <mxPoint x="530" y="1030" as="sourcePoint" />
            <mxPoint x="430" y="930" as="targetPoint" />
          </mxGeometry>
        </mxCell>
        <mxCell id="2_XzBhvZmz4nc-dEymo_-55" value="" style="endArrow=classic;html=1;rounded=0;exitX=0;exitY=0.5;exitDx=0;exitDy=0;" edge="1" parent="1" source="2_XzBhvZmz4nc-dEymo_-50">
          <mxGeometry width="50" height="50" relative="1" as="geometry">
            <mxPoint x="530" y="1030" as="sourcePoint" />
            <mxPoint x="280" y="930" as="targetPoint" />
          </mxGeometry>
        </mxCell>
      </root>
    </mxGraphModel>
  </diagram>
</mxfile>
